<mxfile host="app.diagrams.net" modified="2023-05-04T04:32:25.340Z" agent="Mozilla/5.0 (X11; Linux x86_64) AppleWebKit/537.36 (KHTML, like Gecko) Chrome/110.0.0.0 Safari/537.36" version="21.2.7" etag="8dNroB4UbknBxkn4qKk0" type="github">
  <diagram name="Page-1" id="mlqYEkMHlfALtcmSVhTl">
    <mxGraphModel>
      <root>
        <mxCell id="0" />
        <mxCell id="1" parent="0" />
      </root>
    </mxGraphModel>
  </diagram>
</mxfile>
